<?xml version="1.0" encoding="UTF-8" standalone="no"?><!DOCTYPE svg PUBLIC "-//W3C//DTD SVG 1.1//EN" "http://www.w3.org/Graphics/SVG/1.1/DTD/svg11.dtd"><svg width="100%" height="100%" viewBox="0 0 210 204" version="1.1" xmlns="http://www.w3.org/2000/svg" xmlns:xlink="http://www.w3.org/1999/xlink" xml:space="preserve" xmlns:serif="http://www.serif.com/" style="fill-rule:evenodd;clip-rule:evenodd;stroke-linecap:round;stroke-linejoin:round;stroke-miterlimit:10;"><g><path d="M89.519,41.649c-8.58,1.028 -20.815,3.021 -28.362,7.427c-4.7,2.745 -10.366,5.026 -14.338,8.701c-4.193,3.871 -10.959,10.129 -14.092,14.564c-5.871,8.31 -9.096,15.811 -12.293,25.579c-4.454,13.633 -6.52,31.465 -19.714,39.813c2.393,5.575 11.054,11.292 15.59,14.959c-0.057,-0.049 -0.124,-0.183 -0.197,-0.373c0.954,0.74 1.887,1.671 2.003,2.865c-0.106,-1.071 -7.733,1.415 -8.893,1.959c-0.031,0.013 -0.057,0.026 -0.08,0.04c8.397,9.589 18.801,17.223 30.358,22.582c19.945,9.244 42.692,12.296 64.481,10.185c0.009,0.001 0.017,-0.002 0.026,-0.001c0.008,0.001 0.017,-0.002 0.025,-0.001c21.789,-2.144 43.517,-9.531 61.302,-22.456c10.303,-7.486 19.034,-16.989 25.42,-28.023c-0.025,-0.007 -0.053,-0.015 -0.086,-0.023c-1.242,-0.31 -9.208,-1.276 -9.102,-0.204c-0.12,-1.195 0.616,-2.288 1.409,-3.197c-0.033,0.202 -0.073,0.348 -0.122,0.405c3.744,-4.476 11.137,-11.761 12.407,-17.687c-14.56,-5.645 -20.03,-22.742 -27.039,-35.257c-5.019,-8.967 -9.635,-15.705 -16.997,-22.721c-3.93,-3.747 -11.781,-8.578 -16.641,-11.571c-4.61,-2.837 -10.611,-3.978 -15.75,-5.763c-8.26,-2.862 -20.651,-2.459 -29.263,-1.809l-0.052,0.007Z" style="fill:#fff;fill-rule:nonzero;"/><path d="M89.519,41.649c-8.58,1.028 -20.815,3.021 -28.362,7.427c-4.7,2.745 -10.366,5.026 -14.338,8.701c-4.193,3.871 -10.959,10.129 -14.092,14.564c-5.871,8.31 -9.096,15.811 -12.293,25.579c-4.454,13.633 -6.52,31.465 -19.714,39.813c2.393,5.575 11.054,11.292 15.59,14.959c-0.312,-0.257 -0.867,-3.022 -1.183,-3.28c-3.12,-3.747 -3.144,-6.798 -3.136,-6.793c-0.069,-0.558 -0.035,-1.133 0.165,-1.73c0.851,-2.489 11.722,-9.619 14.337,-12.044c3.015,-2.799 2.324,-6.533 3.084,-10.382c2.551,-12.95 9.545,-27.356 20.731,-34.925c13.823,-9.353 22.9,-3.375 30.183,9.506c5.243,9.264 8.612,19.953 10.787,30.351c2.148,-0.527 4.269,-0.834 6.139,-1.013c1.87,-0.187 4.017,-0.294 6.221,-0.192c0.124,-10.624 1.367,-21.764 4.718,-31.866c4.661,-14.044 12.41,-21.663 27.783,-15.158c12.433,5.267 22.08,18.046 27.085,30.262c1.489,3.628 1.533,7.429 5.034,9.59c3.034,1.876 15.076,6.771 16.392,9.051c0.315,0.543 0.455,1.102 0.499,1.661c0.005,-0.003 0.568,2.993 -1.766,7.276c-0.261,0.311 -0.271,3.132 -0.529,3.444c3.744,-4.476 11.137,-11.761 12.407,-17.687c-14.56,-5.645 -20.03,-22.742 -27.039,-35.257c-5.019,-8.967 -9.635,-15.705 -16.997,-22.721c-3.93,-3.747 -11.781,-8.578 -16.641,-11.571c-4.61,-2.837 -10.611,-3.978 -15.75,-5.763c-8.26,-2.862 -20.651,-2.459 -29.263,-1.809" style="fill:#da56d1;fill-rule:nonzero;"/><path d="M171.053,88.852l0.426,0.863c0.662,1.359 1.331,2.807 2.038,4.343c3.42,7.446 7.3,15.881 13.983,20.449c1.483,1.011 2.933,1.637 4.101,2.139c0.996,0.43 2.024,0.873 2.267,1.256c0.069,0.114 0.38,0.79 -0.382,3.236c-1.621,5.24 -4.914,9.97 -8.511,14.049l-3.224,3.47l9.963,-0.97c0.075,0.673 -0.626,2.299 -2.093,4.842c-8.749,15.148 -24.764,25.589 -33.564,30.478l-5.648,2.845l-0.01,0.012c-0.4,0.21 -0.833,0.455 -1.258,0.692c-0.325,0.182 -0.636,0.357 -0.915,0.507l-2.133,1.15" style="fill:none;fill-rule:nonzero;stroke:#472773;stroke-width:3.78px;"/><path d="M63.535,48.021l1.48,-0.559c7.258,-2.75 14.622,-4.605 24.433,-5.77l0.199,-0.017c9.852,-0.753 17.436,-0.36 25.089,0.936l1.558,0.265" style="fill:none;fill-rule:nonzero;stroke:#472773;stroke-width:3.78px;"/><path d="M18.693,103.712l-0.25,0.93c-0.387,1.459 -0.765,3.012 -1.158,4.655c-1.923,7.965 -4.099,16.991 -9.772,22.764c-1.259,1.279 -2.562,2.171 -3.61,2.893c-0.894,0.611 -1.817,1.244 -1.979,1.669c-0.049,0.124 -0.219,0.85 0.995,3.105c2.608,4.825 6.75,8.825 11.067,12.133l3.835,2.787l-9.966,0.969c0.058,0.675 1.061,2.134 2.994,4.348c11.509,13.171 29.241,20.322 38.815,23.419l6.095,1.699l0.012,0.01c0.433,0.129 0.905,0.284 1.369,0.439c0.351,0.115 0.694,0.225 0.993,0.316l2.317,0.717" style="fill:none;fill-rule:nonzero;stroke:#472773;stroke-width:3.78px;"/><path d="M148.91,180.797c-0.226,-2.174 -2.46,-4.53 -2.46,-4.53c-21.714,10.82 -41.406,12.78 -42.52,12.889c-1.11,0.11 -20.813,1.988 -44.208,-4.431c0,-0 -1.735,2.744 -1.535,4.919c0.195,2.174 0.002,6.029 7.368,8.679c7.368,2.646 20.29,6.676 39.687,4.256c19.497,-1.371 31.397,-7.823 38.111,-11.846c6.719,-4.022 5.782,-7.767 5.557,-9.936" style="fill:#472773;fill-rule:nonzero;"/><path d="M168.925,79.48c1.376,-18.45 -3.083,-43.264 -11.089,-59.96c-2.828,-5.9 -9.683,-19.127 -17.662,-17.593c-6.817,1.312 -16.583,16.317 -20.18,22.179c-3.665,5.978 -6.61,12.374 -10.18,18.403l59.111,36.971Z" style="fill:#da56d1;fill-rule:nonzero;"/><path d="M157.277,32.614c-7.826,-25.57 -20.163,-0.538 -27.677,12.715c0,-0 2.59,1.389 6.395,3.776l15.201,11.636c3.461,3.575 7.918,8.421 10.866,12.428c0.434,-2.537 2.219,-17.67 -4.785,-40.555" style="fill:#fff;fill-rule:nonzero;"/><path d="M108.563,41.614l0.768,-1.386c1.003,-1.82 2.011,-3.682 2.984,-5.487c4.76,-8.822 9.683,-17.947 16.471,-25.351c3.821,-4.164 7.398,-6.622 10.641,-7.305c5.77,-1.217 11.226,3.174 17.177,13.831c10.625,19.039 15.09,43.761 11.65,64.51l-0.158,0.953" style="fill:none;fill-rule:nonzero;stroke:#472773;stroke-width:3.78px;"/><path d="M170.608,88.19c-2.803,-7.373 -7.1,-12.056 -9.741,-16.18c-8.278,-12.946 -20.483,-18.654 -20.853,-20.107c-0.202,-0.801 0.908,-1.726 2.323,-3.582c1.69,-2.217 3.39,-3.794 4.616,-4.809c0.962,2.224 1.976,4.844 2.708,7.87c0.665,2.753 1.889,5.907 2.04,8.92" style="fill:#472773;fill-rule:nonzero;stroke:#472773;stroke-width:3.78px;"/><path d="M62.627,49.124c-5.217,-4.679 -9.951,-9.895 -15.245,-14.492c-5.191,-4.512 -19.014,-15.888 -25.911,-15.092c-8.073,0.936 -10.633,15.612 -11.556,22.089c-2.62,18.333 0.586,43.337 7.442,60.522l45.27,-53.027Z" style="fill:#da56d1;fill-rule:nonzero;"/><path d="M19.754,47.214c-2.448,23.805 2.222,38.313 3.141,40.715c2.117,-4.502 5.557,-10.116 8.26,-14.294l12.668,-14.35c3.268,-3.083 5.54,-4.942 5.54,-4.942c-9.93,-11.551 -26.872,-33.728 -29.609,-7.129" style="fill:#fff;fill-rule:nonzero;"/><path d="M63.548,47.894l-1.145,-1.092c-1.509,-1.434 -3.027,-2.908 -4.495,-4.337c-7.197,-6.984 -14.633,-14.207 -23.33,-19.227c-4.893,-2.825 -9.048,-4.093 -12.346,-3.773c-5.87,0.576 -9.757,6.408 -12.225,18.357c-4.415,21.352 -1.245,46.271 8.276,65.026l0.434,0.861" style="fill:none;fill-rule:nonzero;stroke:#472773;stroke-width:3.78px;"/><path d="M19.027,102.973c1.324,-7.775 4.639,-13.199 6.432,-17.758c5.621,-14.299 16.49,-22.26 16.572,-23.758c0.043,-0.821 -1.223,-1.516 -2.97,-3.065c-2.084,-1.846 -4.061,-3.066 -5.457,-3.827c-0.517,2.367 -1.004,5.136 -1.135,8.248c-0.121,2.831 -0.712,6.163 -0.281,9.148" style="fill:#472773;fill-rule:nonzero;stroke:#472773;stroke-width:3.78px;"/><path d="M163.379,139.046c0.384,3.966 -3.628,7.598 -8.962,8.119c-5.339,0.52 -9.976,-2.269 -10.364,-6.235c-0.385,-3.961 3.628,-7.598 8.962,-8.119c5.338,-0.52 9.975,2.27 10.364,6.235" style="fill:#e678e9;fill-rule:nonzero;"/><path d="M35.946,151.475c-0.388,-3.966 3.628,-7.598 8.962,-8.119c5.339,-0.524 9.976,2.27 10.364,6.235c0.385,3.962 -3.628,7.598 -8.962,8.119c-5.338,0.52 -9.979,-2.27 -10.364,-6.235" style="fill:#e678e9;fill-rule:nonzero;"/><path d="M124.01,102.215l10.346,-5.272" style="fill:none;fill-rule:nonzero;stroke:#472773;stroke-width:3.78px;"/><path d="M67.444,107.732l-11.173,-3.174" style="fill:none;fill-rule:nonzero;stroke:#472773;stroke-width:3.78px;"/><path d="M130.625,111.034c6.227,-0.607 11.77,3.949 12.377,10.176c0.607,6.227 -3.95,11.769 -10.176,12.376c-6.227,0.607 -11.77,-3.949 -12.377,-10.176c-0.607,-6.226 3.95,-11.769 10.176,-12.376" style="fill:#472773;"/><path d="M137.31,124.528c1.063,-0.103 2.008,0.703 2.115,1.8c0.107,1.1 -0.665,2.075 -1.728,2.178c-1.062,0.103 -2.007,-0.703 -2.114,-1.804c-0.107,-1.096 0.665,-2.071 1.727,-2.174" style="fill:#ac9ec0;"/><path d="M128.846,114.767c2.767,-0.269 5.231,1.755 5.5,4.522c0.269,2.767 -1.755,5.231 -4.521,5.5c-2.772,0.273 -5.232,-1.755 -5.501,-4.521c-0.273,-2.768 1.755,-5.232 4.522,-5.501" style="fill:#fff;"/><path d="M133.784,128.098c-0.807,-1.952 -2.548,-3.382 -4.621,-3.799c-0.278,-0.056 -0.315,-0.438 -0.053,-0.548c1.952,-0.807 3.382,-2.548 3.799,-4.617c0.056,-0.282 0.438,-0.319 0.548,-0.053c0.807,1.948 2.548,3.382 4.621,3.799c0.278,0.056 0.315,0.434 0.054,0.544c-1.953,0.811 -3.387,2.552 -3.8,4.621c-0.055,0.278 -0.438,0.319 -0.548,0.053Z" style="fill:none;fill-rule:nonzero;stroke:#472773;stroke-width:3.78px;stroke-miterlimit:4;"/><path d="M133.784,128.098c-0.807,-1.952 -2.548,-3.382 -4.621,-3.799c-0.278,-0.056 -0.315,-0.438 -0.053,-0.548c1.952,-0.807 3.382,-2.548 3.799,-4.617c0.056,-0.282 0.438,-0.319 0.548,-0.053c0.807,1.948 2.548,3.382 4.621,3.799c0.278,0.056 0.315,0.434 0.054,0.544c-1.953,0.811 -3.387,2.552 -3.8,4.621c-0.055,0.278 -0.438,0.319 -0.548,0.053" style="fill:#ac9ec0;"/><path d="M130.659,111.071c-6.227,0.607 -10.783,6.149 -10.176,12.376c0.607,6.227 6.149,10.783 12.376,10.176c6.227,-0.607 10.783,-6.15 10.176,-12.376c-0.607,-6.227 -6.15,-10.783 -12.376,-10.176" style="fill:#472773;fill-rule:nonzero;"/><path d="M119.383,112.169l1.187,12.168l22.552,-2.2l-1.188,-12.168l-22.551,2.2Z" style="fill:#fff;"/><path d="M128.416,118.752c2.762,-0.269 5.231,1.759 5.5,4.522c0.27,2.763 -1.759,5.231 -4.521,5.501c-2.763,0.269 -5.232,-1.759 -5.501,-4.522c-0.27,-2.763 1.759,-5.231 4.522,-5.501" style="fill:#fff;fill-rule:nonzero;"/><path d="M137.609,125.203l-0.244,-2.503l-14.738,1.439l0.245,2.503l14.737,-1.439Z" style="fill:#472773;"/><path d="M62.705,117.699c-6.227,0.607 -10.783,6.149 -10.176,12.376c0.607,6.227 6.149,10.783 12.376,10.176c6.227,-0.607 10.783,-6.15 10.176,-12.376c-0.607,-6.227 -6.15,-10.783 -12.376,-10.176" style="fill:#472773;fill-rule:nonzero;"/><path d="M75.167,128.764l-1.187,-12.165l-22.552,2.201l1.187,12.164l22.552,-2.2Z" style="fill:#fff;"/><path d="M66.39,124.801c2.763,-0.269 5.231,1.76 5.501,4.522c0.269,2.763 -1.759,5.231 -4.522,5.501c-2.763,0.269 -5.231,-1.759 -5.501,-4.522c-0.269,-2.763 1.759,-5.231 4.522,-5.501" style="fill:#fff;fill-rule:nonzero;"/><path d="M58.371,130.401l0.245,2.509l14.738,-1.439l-0.245,-2.508l-14.738,1.438Z" style="fill:#472773;"/><path d="M104.888,129.791c-1.734,-0.203 -4.133,-0.224 -6.646,0.026c-0.013,0.003 -0.021,0.002 -0.034,0.005c-0.013,0.002 -0.025,0.001 -0.038,0.003c-2.511,0.238 -4.86,0.723 -6.526,1.259c-12.434,3.996 -3.024,16.142 5.917,16.267c1.569,0.006 3.129,-0.144 4.663,-0.458c8.753,-1.85 15.638,-15.585 2.664,-17.102" style="fill:#472773;fill-rule:nonzero;"/><path d="M107.732,167.805c5.356,-4.104 4.438,-10.739 4.438,-10.739c-8.187,0.468 -11.961,-5.816 -11.961,-5.816c-0.004,-0.005 -2.491,6.895 -10.616,8.018c-0,-0 0.385,6.69 6.433,9.68c3.778,1.868 8.36,1.418 11.706,-1.143" style="fill:#472773;fill-rule:nonzero;"/><path d="M107.732,167.805c5.356,-4.104 4.438,-10.739 4.438,-10.739c-8.187,0.468 -11.961,-5.816 -11.961,-5.816c-0.004,-0.005 -2.491,6.895 -10.616,8.018c-0,-0 0.385,6.69 6.433,9.68c3.778,1.868 8.36,1.418 11.706,-1.143Z" style="fill:none;fill-rule:nonzero;stroke:#472773;stroke-width:3.78px;"/><path d="M105.947,160.842c-1.562,-0.409 -3.197,-0.532 -4.787,-0.369c-1.593,0.146 -3.172,0.584 -4.627,1.285c-2.614,1.262 -4.09,2.292 -1.335,4.587c1.899,1.575 4.362,2.163 6.718,1.893c2.362,-0.193 4.668,-1.242 6.224,-3.156c2.261,-2.784 0.617,-3.509 -2.193,-4.24" style="fill:#e678e9;fill-rule:nonzero;"/><path d="M79.25,151.282c1.591,3.351 6.67,9.202 14.154,6.182c7.48,-3.021 6.322,-11.81 6.322,-11.81c0,-0 0.558,8.849 8.482,10.367c7.927,1.515 11.778,-5.203 12.691,-8.801" style="fill:none;fill-rule:nonzero;stroke:#472773;stroke-width:3.78px;"/><path d="M175.793,108.625c-2.044,-11.784 -9.891,-21.854 -20.815,-26.727c-1.476,-0.658 -1.208,-2.808 0.385,-3.088c11.784,-2.045 21.858,-9.887 26.726,-20.811c0.659,-1.48 2.813,-1.212 3.089,0.384c2.045,11.784 9.891,21.854 20.815,26.723c1.476,0.662 1.208,2.812 -0.384,3.089c-11.784,2.048 -21.858,9.89 -26.727,20.815c-0.658,1.475 -2.812,1.208 -3.089,-0.385Z" style="fill:none;fill-rule:nonzero;stroke:#472773;stroke-width:4.47px;"/><path d="M175.793,108.625c-2.044,-11.784 -9.891,-21.854 -20.815,-26.727c-1.476,-0.658 -1.208,-2.808 0.385,-3.088c11.784,-2.045 21.858,-9.887 26.726,-20.811c0.659,-1.48 2.813,-1.212 3.089,0.384c2.045,11.784 9.891,21.854 20.815,26.723c1.476,0.662 1.208,2.812 -0.384,3.089c-11.784,2.048 -21.858,9.89 -26.727,20.815c-0.658,1.475 -2.812,1.208 -3.089,-0.385" style="fill:#ffd83d;"/><path d="M175.793,108.625c-2.044,-11.784 -9.891,-21.854 -20.815,-26.727c-1.476,-0.658 -1.208,-2.808 0.385,-3.088c11.784,-2.045 21.858,-9.887 26.726,-20.811c0.659,-1.48 2.813,-1.212 3.089,0.384c2.045,11.784 9.891,21.854 20.815,26.723c1.476,0.662 1.208,2.812 -0.384,3.089c-11.784,2.048 -21.858,9.89 -26.727,20.815c-0.658,1.475 -2.812,1.208 -3.089,-0.385Z" style="fill:none;fill-rule:nonzero;stroke:#472773;stroke-width:4.47px;"/><path d="M31.045,197.778c-3.691,-6.782 -10.572,-11.316 -18.259,-12.028c-1.042,-0.096 -1.325,-1.471 -0.406,-1.97c6.782,-3.691 11.312,-10.572 12.028,-18.259c0.096,-1.042 1.466,-1.321 1.97,-0.406c3.691,6.783 10.572,11.316 18.259,12.029c1.038,0.095 1.32,1.47 0.406,1.969c-6.782,3.691 -11.316,10.572 -12.029,18.259c-0.096,1.042 -1.47,1.325 -1.969,0.406Z" style="fill:none;fill-rule:nonzero;stroke:#472773;stroke-width:2.89px;"/><path d="M31.045,197.778c-3.691,-6.782 -10.572,-11.316 -18.259,-12.028c-1.042,-0.096 -1.325,-1.471 -0.406,-1.97c6.782,-3.691 11.312,-10.572 12.028,-18.259c0.096,-1.042 1.466,-1.321 1.97,-0.406c3.691,6.783 10.572,11.316 18.259,12.029c1.038,0.095 1.32,1.47 0.406,1.969c-6.782,3.691 -11.316,10.572 -12.029,18.259c-0.096,1.042 -1.47,1.325 -1.969,0.406" style="fill:#ffd83d;"/><path d="M31.045,197.778c-3.691,-6.782 -10.572,-11.316 -18.259,-12.028c-1.042,-0.096 -1.325,-1.471 -0.406,-1.97c6.782,-3.691 11.312,-10.572 12.028,-18.259c0.096,-1.042 1.466,-1.321 1.97,-0.406c3.691,6.783 10.572,11.316 18.259,12.029c1.038,0.095 1.32,1.47 0.406,1.969c-6.782,3.691 -11.316,10.572 -12.029,18.259c-0.096,1.042 -1.47,1.325 -1.969,0.406Z" style="fill:none;fill-rule:nonzero;stroke:#472773;stroke-width:3.78px;"/></g></svg>